<?xml version="1.0" encoding="UTF-8"?>
<svg width="90px" height="90px" viewBox="0 0 90 90" version="1.1" xmlns="http://www.w3.org/2000/svg" xmlns:xlink="http://www.w3.org/1999/xlink">
    <!-- Generator: Sketch 50.2 (55047) - http://www.bohemiancoding.com/sketch -->
    <title>search</title>
    <desc>Created with Sketch.</desc>
    <defs></defs>
    <g id="Icons" stroke="none" stroke-width="1" fill="none" fill-rule="evenodd">
        <g id="search" fill="#006bb6" fill-rule="nonzero">
            <path d="M53.994,9.561 C48.06,3.625 40.169,0.355 31.776,0.355 C23.383,0.355 15.493,3.625 9.559,9.558 C3.623,15.494 0.355,23.384 0.355,31.777 C0.355,40.17 3.624,48.06 9.559,53.996 C15.494,59.932 23.384,63.199 31.777,63.199 C40.17,63.199 48.06,59.931 53.995,53.996 C59.931,48.06 63.199,40.17 63.198,31.777 C63.198,23.385 59.93,15.494 53.994,9.561 Z M48.339,48.34 C43.915,52.764 38.033,55.199 31.777,55.199 C25.521,55.199 19.64,52.764 15.216,48.34 C10.792,43.914 8.356,38.033 8.356,31.777 C8.356,25.521 10.793,19.638 15.216,15.214 C19.639,10.79 25.521,8.355 31.777,8.355 C38.033,8.355 43.914,10.793 48.339,15.216 C52.763,19.64 55.199,25.521 55.199,31.777 C55.199,38.033 52.763,43.916 48.339,48.34 Z M87.594,77.693 L74.866,64.967 C73.184,63.285 70.861,62.643 68.685,63.029 L61.676,56.021 C60.113,54.458 57.58,54.458 56.02,56.021 C54.457,57.582 54.457,60.115 56.02,61.677 L63.028,68.685 C62.641,70.861 63.284,73.185 64.966,74.867 L77.694,87.594 C79.061,88.961 80.853,89.645 82.644,89.645 C84.435,89.645 86.227,88.961 87.594,87.594 C90.327,84.859 90.327,80.428 87.594,77.693 Z" id="Shape"></path>
        </g>
    </g>
</svg>